<svg width="132" height="24" viewBox="0 0 132 24" fill="none" xmlns="http://www.w3.org/2000/svg">
<g clip-path="url(#clip0_1_50)">
<path d="M23.8425 6.97453C23.8425 4.86516 22.291 3.16828 20.3738 3.16828C17.7769 3.04687 15.1285 3 12.4219 3H11.5782C8.87817 3 6.22504 3.04687 3.62817 3.16875C1.71567 3.16875 0.164103 4.875 0.164103 6.98437C0.0469159 8.65266 -0.00277159 10.3214 4.091e-05 11.9902C-0.00464659 13.6589 0.0484784 15.3292 0.159416 17.0011C0.159416 19.1105 1.71098 20.8214 3.62348 20.8214C6.3516 20.948 9.15004 21.0042 11.9954 20.9995C14.8454 21.0089 17.636 20.9495 20.3672 20.8214C22.2844 20.8214 23.836 19.1105 23.836 17.0011C23.9485 15.3277 24 13.6589 23.9954 11.9855C24.006 10.3167 23.955 8.64641 23.8425 6.97453ZM9.70317 16.5886V7.37766L16.5 11.9808L9.70317 16.5886Z" fill="#373B59"/>
</g>
<path fill-rule="evenodd" clip-rule="evenodd" d="M55.4405 4.55155C54.4697 3.58033 53.3165 2.81071 52.0471 2.287C50.7777 1.76328 49.4172 1.49581 48.0441 1.49999C42.2812 1.49999 37.59 6.1678 37.5877 11.9062C37.5851 13.7335 38.0668 15.5288 38.9836 17.1094L37.5 22.5L43.043 21.053C44.5773 21.8842 46.2948 22.3192 48.0398 22.3186H48.0441C53.8064 22.3186 58.4972 17.6503 58.5 11.9123C58.5035 10.5438 58.2348 9.18832 57.7095 7.92465C57.1843 6.66097 56.413 5.51436 55.4405 4.55155ZM48.0441 20.5622H48.0403C46.4847 20.5626 44.9574 20.1463 43.6172 19.3566L43.2998 19.1691L40.0106 20.0278L40.8886 16.8361L40.6819 16.508C39.8121 15.1309 39.3512 13.535 39.353 11.9062C39.353 7.13764 43.2534 3.2578 48.0473 3.2578C50.347 3.25369 52.5542 4.16321 54.1833 5.78629C55.8125 7.40938 56.7302 9.61312 56.7347 11.9128C56.7328 16.6819 52.8342 20.5622 48.0441 20.5622ZM52.8108 14.0845C52.5497 13.9542 51.2639 13.3251 51.0258 13.2384C50.7877 13.1517 50.6119 13.1081 50.438 13.3687C50.2641 13.6294 49.763 14.2125 49.6106 14.3883C49.4583 14.5641 49.3059 14.5833 49.0448 14.453C48.7838 14.3226 47.9414 14.0484 46.9434 13.1625C46.1667 12.473 45.6427 11.6217 45.4903 11.3616C45.338 11.1014 45.4739 10.9603 45.6047 10.8309C45.7223 10.7142 45.8658 10.5272 45.9966 10.3753C46.1273 10.2234 46.1709 10.1147 46.2577 9.94124C46.3444 9.7678 46.3012 9.61592 46.2361 9.48608C46.1709 9.35624 45.6483 8.07608 45.4308 7.5553C45.2184 7.04811 45.0033 7.11702 44.843 7.10905C44.6906 7.10155 44.5148 7.09968 44.3419 7.09968C44.2096 7.10312 44.0795 7.13378 43.9597 7.18975C43.8398 7.24573 43.7328 7.3258 43.6453 7.42499C43.4058 7.68561 42.7308 8.31561 42.7308 9.59436C42.7308 10.8731 43.6683 12.1106 43.7977 12.284C43.927 12.4575 45.6398 15.0839 48.2606 16.2103C48.7473 16.4187 49.2445 16.6015 49.7503 16.7578C50.3761 16.9556 50.9456 16.928 51.3956 16.8609C51.8977 16.7864 52.9425 16.2319 53.1595 15.6244C53.3766 15.0169 53.377 14.4966 53.3119 14.3883C53.2467 14.28 53.0723 14.2144 52.8108 14.0845Z" fill="#373B59"/>
<path d="M95.25 5.13282C94.406 5.49955 93.513 5.74116 92.5992 5.85001C93.5595 5.28769 94.2817 4.39434 94.6303 3.33751C93.7224 3.86841 92.7307 4.24092 91.6978 4.43907C91.2629 3.98322 90.7397 3.62059 90.1603 3.3732C89.5808 3.12581 88.9571 2.99884 88.327 3.00001C85.7761 3.00001 83.7117 5.03438 83.7117 7.5422C83.7099 7.89102 83.7499 8.23881 83.8308 8.57813C82.0016 8.49238 80.2104 8.02575 78.5719 7.2081C76.9333 6.39044 75.4835 5.23977 74.3152 3.8297C73.9053 4.52069 73.6885 5.30909 73.6875 6.11251C73.6875 7.68751 74.5092 9.0797 75.75 9.89532C75.0149 9.87787 74.2948 9.68331 73.6509 9.32813V9.38438C73.6509 11.5875 75.2447 13.4203 77.3541 13.8375C76.9574 13.9432 76.5486 13.9968 76.1381 13.9969C75.8468 13.9974 75.5562 13.9691 75.2705 13.9125C75.8569 15.7172 77.5636 17.0297 79.5853 17.0672C77.9425 18.3333 75.9256 19.0175 73.8516 19.0125C73.4834 19.012 73.1156 18.99 72.75 18.9469C74.8599 20.2942 77.3126 21.0068 79.8159 21C88.3172 21 92.9616 14.0766 92.9616 8.07188C92.9616 7.87501 92.9564 7.67813 92.947 7.48595C93.8485 6.84472 94.6283 6.04787 95.25 5.13282Z" fill="#373B59"/>
<path d="M124.375 3.24984C125.534 3.25331 126.645 3.71539 127.465 4.53517C128.285 5.35495 128.747 6.46582 128.75 7.62516V16.3748C128.747 17.5342 128.285 18.6451 127.465 19.4648C126.645 20.2846 125.534 20.7467 124.375 20.7502H115.625C114.466 20.7467 113.355 20.2846 112.535 19.4648C111.715 18.6451 111.253 17.5342 111.25 16.3748V7.62516C111.253 6.46582 111.715 5.35495 112.535 4.53517C113.355 3.71539 114.466 3.25331 115.625 3.24984H124.375ZM124.375 1.5H115.625C112.256 1.5 109.5 4.25625 109.5 7.62516V16.3748C109.5 19.7437 112.256 22.5 115.625 22.5H124.375C127.744 22.5 130.5 19.7437 130.5 16.3748V7.62516C130.5 4.25625 127.744 1.5 124.375 1.5Z" fill="#373B59"/>
<path d="M125.687 7.62515C125.428 7.62515 125.174 7.54818 124.958 7.40396C124.742 7.25974 124.574 7.05475 124.475 6.81492C124.375 6.5751 124.349 6.3112 124.4 6.0566C124.451 5.802 124.576 5.56813 124.759 5.38458C124.943 5.20102 125.177 5.07602 125.431 5.02537C125.686 4.97473 125.95 5.00072 126.19 5.10006C126.429 5.1994 126.634 5.36763 126.779 5.58347C126.923 5.79931 127 6.05306 127 6.31265C127 6.48512 126.967 6.65596 126.901 6.81536C126.835 6.97477 126.738 7.11961 126.616 7.24156C126.494 7.36351 126.349 7.46017 126.19 7.526C126.031 7.59183 125.86 7.62552 125.687 7.62515ZM120 8.49984C120.692 8.49984 121.369 8.70512 121.945 9.08972C122.52 9.47433 122.969 10.021 123.234 10.6605C123.499 11.3001 123.568 12.0039 123.433 12.6828C123.298 13.3618 122.964 13.9855 122.475 14.475C121.985 14.9645 121.362 15.2978 120.683 15.4329C120.004 15.568 119.3 15.4986 118.661 15.2337C118.021 14.9688 117.474 14.5202 117.09 13.9446C116.705 13.369 116.5 12.6923 116.5 12C116.501 11.072 116.87 10.1823 117.526 9.52611C118.182 8.86992 119.072 8.50083 120 8.49984ZM120 6.75C118.962 6.75 117.947 7.0579 117.083 7.63478C116.22 8.21166 115.547 9.0316 115.15 9.99091C114.752 10.9502 114.648 12.0058 114.851 13.0242C115.053 14.0426 115.553 14.9781 116.288 15.7123C117.022 16.4465 117.957 16.9465 118.976 17.1491C119.994 17.3517 121.05 17.2477 122.009 16.8504C122.968 16.453 123.788 15.7801 124.365 14.9167C124.942 14.0534 125.25 13.0383 125.25 12C125.25 10.6076 124.697 9.27225 123.712 8.28769C122.728 7.30312 121.392 6.75 120 6.75Z" fill="#373B59"/>
<defs>
<clipPath id="clip0_1_50">
<rect width="24" height="24" fill="white"/>
</clipPath>
</defs>
</svg>
